<svg xmlns="http://www.w3.org/2000/svg" width="24" height="17.222" viewBox="0 0 24 17.222"><path d="M13.983,11.078H16.1a.186.186,0,0,0,.186-.185V9.006A.186.186,0,0,0,16.1,8.82H13.983a.185.185,0,0,0-.185.185v1.888a.185.185,0,0,0,.185.185m-2.954-5.43h2.118a.186.186,0,0,0,.186-.186V3.574a.186.186,0,0,0-.186-.185H11.029a.185.185,0,0,0-.185.185V5.462a.185.185,0,0,0,.185.185m0,2.716h2.118a.187.187,0,0,0,.186-.186V6.29a.186.186,0,0,0-.186-.185H11.029a.185.185,0,0,0-.185.185V8.177a.186.186,0,0,0,.185.186m-2.93,0h2.12a.186.186,0,0,0,.184-.186V6.29a.185.185,0,0,0-.185-.185H8.1a.185.185,0,0,0-.185.185V8.177a.187.187,0,0,0,.185.186m-2.964,0H7.255a.186.186,0,0,0,.185-.186V6.29a.185.185,0,0,0-.185-.185H5.136a.186.186,0,0,0-.186.185V8.177a.188.188,0,0,0,.186.186m5.893,2.715h2.118a.186.186,0,0,0,.186-.185V9.006a.186.186,0,0,0-.186-.186H11.029a.185.185,0,0,0-.185.185v1.888a.185.185,0,0,0,.185.185m-2.93,0h2.12a.185.185,0,0,0,.184-.185V9.006a.185.185,0,0,0-.184-.186H8.1a.185.185,0,0,0-.184.185v1.888a.185.185,0,0,0,.185.185m-2.964,0H7.255a.185.185,0,0,0,.185-.185V9.006a.185.185,0,0,0-.184-.186H5.136a.186.186,0,0,0-.186.186v1.887a.186.186,0,0,0,.186.185m-2.92,0h2.12a.185.185,0,0,0,.184-.185V9.006a.185.185,0,0,0-.184-.186H2.216a.185.185,0,0,0-.184.185v1.888a.185.185,0,0,0,.185.185M23.763,9.89a3.2,3.2,0,0,0-1.954-.51,6.113,6.113,0,0,0-1.01.087A3.768,3.768,0,0,0,19.083,6.9l-.344-.2-.226.327a4.6,4.6,0,0,0-.612,1.43,3.386,3.386,0,0,0,.4,2.661,4.692,4.692,0,0,1-1.744.42H.751a.751.751,0,0,0-.75.748A11.376,11.376,0,0,0,.693,16.35,6.025,6.025,0,0,0,3.1,19.474a10.63,10.63,0,0,0,5.275,1.137,15.741,15.741,0,0,0,2.93-.266,12.248,12.248,0,0,0,3.823-1.389,10.509,10.509,0,0,0,2.61-2.136,14.56,14.56,0,0,0,2.553-4.4h.221a3.676,3.676,0,0,0,2.68-1.009,2.928,2.928,0,0,0,.707-1.046l.1-.288Z" transform="translate(0 -3.389)" fill="#d5d5d5"/></svg>