<svg xmlns="http://www.w3.org/2000/svg" width="24" height="13.926" viewBox="0 0 24 13.926"><path d="M24,18.588a1.529,1.529,0,0,1-1.9-.72L18.655,13.1l-.5-.667-4,5.444a1.466,1.466,0,0,1-1.8.708l5.158-6.92-4.8-6.251a1.6,1.6,0,0,1,1.9.666l3.576,4.83,3.6-4.81a1.435,1.435,0,0,1,1.788-.668L21.708,7.9l-2.522,3.283a.666.666,0,0,0,0,.994l4.8,6.412ZM0,11.576.422,9.5a5.779,5.779,0,0,1,9.094-3.27c1.895,1.489,2.368,3.6,2.275,5.973H1.116c-.173,4.243,2.889,6.805,6.8,5.5A4.078,4.078,0,0,0,10.5,14.824c.207-.666.548-.78,1.174-.588a5.417,5.417,0,0,1-2.589,3.957,6.272,6.272,0,0,1-7.306-.933A6.575,6.575,0,0,1,.141,13.4a2.678,2.678,0,0,0-.134-.666Q0,12.157,0,11.577Zm1.127-.286h9.654c-.06-3.076-2-5.258-4.59-5.278-2.882-.04-4.944,2.094-5.071,5.264Z" transform="translate(0 -5.037)" fill="#d5d5d5"/></svg>