<svg xmlns="http://www.w3.org/2000/svg" width="24" height="8.966" viewBox="0 0 24 8.966"><path d="M1.811,10.231c-.047,0-.058-.023-.035-.059l.246-.315A.165.165,0,0,1,2.15,9.8H6.322c.046,0,.058.035.035.07l-.2.3a.174.174,0,0,1-.117.07ZM.047,11.306c-.047,0-.059-.023-.035-.058l.245-.316a.167.167,0,0,1,.129-.058H5.714c.047,0,.07.035.058.07l-.093.28a.1.1,0,0,1-.105.07Zm2.828,1.075c-.047,0-.059-.035-.035-.07L3,12.019a.154.154,0,0,1,.117-.07H5.457c.047,0,.07.035.07.082l-.023.28a.088.088,0,0,1-.082.082ZM15,10.021c-.736.187-1.239.327-1.963.514-.176.046-.187.058-.34-.117a1.55,1.55,0,0,0-.548-.444,2.033,2.033,0,0,0-2.115.175,2.484,2.484,0,0,0-1.192,2.22A1.832,1.832,0,0,0,10.423,14.2a2.16,2.16,0,0,0,1.987-.77c.1-.13.2-.27.315-.434H10.47c-.245,0-.3-.152-.222-.35.152-.362.432-.97.6-1.274a.315.315,0,0,1,.292-.187h4.253c-.023.316-.023.631-.07.947a4.983,4.983,0,0,1-.958,2.29,4.864,4.864,0,0,1-3.33,1.986,4.141,4.141,0,0,1-3.143-.77,3.671,3.671,0,0,1-1.484-2.6A4.587,4.587,0,0,1,7.4,9.623,5.181,5.181,0,0,1,10.669,7.6a4.026,4.026,0,0,1,3.1.571,3.67,3.67,0,0,1,1.356,1.648c.07.1.023.164-.117.2m3.868,6.461a4.389,4.389,0,0,1-2.852-1.029A3.665,3.665,0,0,1,14.758,13.2a4.461,4.461,0,0,1,.947-3.529,4.89,4.89,0,0,1,3.272-1.95,4.332,4.332,0,0,1,3.33.6,3.636,3.636,0,0,1,1.648,2.605,4.513,4.513,0,0,1-1.344,3.962,5.352,5.352,0,0,1-2.805,1.5c-.315.06-.63.07-.934.106Zm2.78-4.72a3.318,3.318,0,0,0-.034-.387,1.926,1.926,0,0,0-2.384-1.554,2.552,2.552,0,0,0-2.045,2.033,1.927,1.927,0,0,0,1.075,2.21,2.149,2.149,0,0,0,1.905-.07,2.561,2.561,0,0,0,1.484-2.233Z" transform="translate(0 -7.517)" fill="#d5d5d5"/></svg>