<svg xmlns="http://www.w3.org/2000/svg" width="60" height="59.764" viewBox="0 0 60 59.764"><path d="M35.327.047A3.777,3.777,0,0,0,34.12.264a3.4,3.4,0,0,1,1.44,2.015c.018.107.048.185.063.292a1.7,1.7,0,0,1,.032.28c.06,1.362-.357,1.535-.65,2.34a3.311,3.311,0,0,0,.215,3.05,1.85,1.85,0,0,0,.185.342c-.587-3.92,2.682-4.507,3.285-5.732A2.85,2.85,0,0,0,37.157.574,3.425,3.425,0,0,0,35.327.05Zm4.927.882a1.863,1.863,0,0,0-.03.45c-.015.125-.015.28-.03.4a3.334,3.334,0,0,1-.11.372,2.608,2.608,0,0,1-.125.372l-.167.355c-.05.062-.077.125-.125.187l-.092.137q-.111.159-.232.31a2.117,2.117,0,0,1-.28.28v.015c-.092.077-.185.17-.295.25-.325.247-.695.432-1.037.665a2.18,2.18,0,0,0-.31.232,2.265,2.265,0,0,0-.295.247,2.39,2.39,0,0,0-.278.295,2.229,2.229,0,0,0-.233.31q-.117.157-.217.325c-.062.125-.108.233-.17.355a3.379,3.379,0,0,0-.125.357q-.061.192-.107.387c-.015.062-.015.14-.03.2s-.017.125-.032.187c0,.125-.015.262-.015.387a1.722,1.722,0,0,0,.015.277,1.657,1.657,0,0,0,.047.387,3.317,3.317,0,0,0,.075.375c.05.122.08.245.125.37.032.075.077.155.11.217l-3.565-1.38c-.6-.17-1.192-.325-1.8-.465l-.975-.232c-.93-.185-1.875-.325-2.82-.417-.032,0-.048-.015-.078-.015a27.706,27.706,0,0,0-4.8-.062c-.945.062-1.89.185-2.835.34q-1.053.182-2.092.435l-.7.185c-.23.092-.45.2-.665.295l-.512.232c-.03.015-.06.015-.075.03-.157.077-.295.14-.435.217q-.3.133-.59.295c-.108.045-.215.107-.31.155a1.4,1.4,0,0,1-.137.075c-.14.08-.28.158-.4.235a3.9,3.9,0,0,0-.37.232c-.11.075-.217.137-.31.215-.015.017-.032.017-.047.032-.092.063-.2.14-.295.217l-.03.03-.232.185c-.03.017-.062.048-.092.063-.077.063-.155.14-.232.2a.184.184,0,0,1-.062.062c-.092.1-.185.172-.277.265-.017,0-.017.015-.033.03q-.145.126-.277.265c-.017.015-.017.03-.032.03q-.122.119-.232.25c-.03.03-.075.06-.108.09a3.435,3.435,0,0,1-.265.28c-.015.03-.045.047-.06.075-.125.125-.232.25-.357.375l-.045.045a9.1,9.1,0,0,1-.792.76,8.442,8.442,0,0,1-.867.682A9.442,9.442,0,0,1,6.57,15c-.325.14-.667.265-1.007.372a17.456,17.456,0,0,1-1.89.45,3.407,3.407,0,0,0-.387.045l-.387.092-.372.14c-.125.048-.247.11-.37.17-.11.077-.232.14-.342.217a2.527,2.527,0,0,0-.31.265,2.509,2.509,0,0,0-.31.278c-.092.108-.185.2-.262.31-.077.125-.17.232-.232.357a2.73,2.73,0,0,0-.217.355,4.2,4.2,0,0,0-.17.4c-.047.125-.092.265-.14.4a2.844,2.844,0,0,0-.075.375c0,.012-.017.03-.017.045-.03.14-.03.325-.047.417A2.169,2.169,0,0,0,0,20a1.642,1.642,0,0,0,.185.775v.015a2.825,2.825,0,0,0,.172.28,3.206,3.206,0,0,0,.2.277c.077.078.17.173.265.25a2.265,2.265,0,0,0,.292.248,3.615,3.615,0,0,0,.945.68c.077.047.155.077.25.125.015,0,.03.015.045.015a.139.139,0,0,0,.015.078,3.18,3.18,0,0,0,.2.745c.05.092.08.185.125.277a.3.3,0,0,0,.05.077c.06.125.122.232.182.342l.232.325c.077.092.172.2.265.295s.185.17.295.262a.052.052,0,0,0,.03.015,3.133,3.133,0,0,0,.28.217,2.465,2.465,0,0,0,.34.2,2.594,2.594,0,0,0,.355.172,1.825,1.825,0,0,0,.31.108.293.293,0,0,0,.062.03c.063.017.14.032.2.048a6.148,6.148,0,0,0,.065,1.9c.137.31.82-.635,1.5-1.72a9.675,9.675,0,0,0,0,2.7c.172.387,1.1-.822,1.907-2.155A17.907,17.907,0,0,1,30.835,42.364a3.032,3.032,0,0,0-3.207-2.37A8.1,8.1,0,0,1,25.1,43.527a9.954,9.954,0,0,0-.155-3.1,10.022,10.022,0,0,1-1.922,3.9,4.33,4.33,0,0,1-3.717-1.675c-.062-.045-.077-.137-.125-.2a3.466,3.466,0,0,1-.125-.325,1.287,1.287,0,0,1-.092-.325,2.5,2.5,0,0,1-.015-.342v-.233a2.48,2.48,0,0,1,.077-.325,2.929,2.929,0,0,1,.11-.325,3.067,3.067,0,0,1,.185-.325c.262-.745.262-1.35-.217-1.7a1.765,1.765,0,0,0-.295-.155c-.06-.015-.137-.045-.2-.063l-.125-.045a2.119,2.119,0,0,0-.325-.077,1.18,1.18,0,0,0-.325-.048,2.524,2.524,0,0,0-.34-.03c-.077,0-.155.015-.232.015a1.21,1.21,0,0,0-.342.047,2.55,2.55,0,0,0-.325.06,2.669,2.669,0,0,0-.325.11c-.108.045-.2.092-.31.14-.092.045-.185.107-.295.155-3.61,2.355-1.455,7.87,1.007,9.467a7.668,7.668,0,0,0-2.137.572l-.033.03a14.824,14.824,0,0,0,2.092,1.04c.992.325,2.045.617,2.51.742v.015a14.99,14.99,0,0,0,3.9.28A14.738,14.738,0,0,0,36.522,38.227l.092.4c.048.28.108.575.14.867v.015c.03.14.045.28.063.4v.06a3.969,3.969,0,0,1,.03.4c.015.17.03.34.03.51v.25c0,.075.018.167.018.245,0,.1-.018.188-.018.28v.217c0,.107-.015.2-.015.31a.957.957,0,0,1-.015.2c0,.11-.015.217-.015.342a.43.43,0,0,0-.015.138l-.05.357a.531.531,0,0,1-.012.14c-.018.155-.048.295-.062.45v.03l-.092.435v.045l-.092.417c0,.018-.017.05-.017.063a4.159,4.159,0,0,1-.108.42v.045c-.048.155-.092.295-.125.435a.046.046,0,0,0-.015.03l-.14.465c-.06.155-.108.295-.17.45s-.108.31-.17.45c-.062.155-.125.292-.185.45H35.56c-.06.138-.125.292-.2.432a.755.755,0,0,1-.048.107c-.015.015-.015.033-.03.048a14.667,14.667,0,0,1-4.355,5.2c-.125.077-.247.172-.372.265-.03.03-.075.045-.108.075q-.166.123-.34.235l.045.093h.017l.65-.093h.015c.4-.062.8-.14,1.207-.217a2.813,2.813,0,0,0,.342-.077l.217-.048c.108-.015.215-.045.325-.06.092-.033.185-.05.278-.077A29.966,29.966,0,0,0,37.7,51.957a24.815,24.815,0,0,1-9.625,7.855A25.431,25.431,0,0,0,33.36,58.9,24.757,24.757,0,0,0,48,47.2a24.732,24.732,0,0,1-4.167,9.965A24.356,24.356,0,0,0,54.5,40.552a24.812,24.812,0,0,1,.45,7.467c11.185-15.6.927-31.78-3.365-36.04-.015-.032-.03-.047-.03-.077-.015.015-.015.015-.015.03,0-.015,0-.015-.017-.03,0,.185-.015.37-.03.557q-.064.521-.155,1.037c-.075.34-.17.682-.262,1.025-.11.325-.233.665-.375.99s-.3.636-.462.945a11.837,11.837,0,0,1-1.192,1.72c-.232.277-.48.525-.73.775q-.219.2-.45.387l-.355.31a8.647,8.647,0,0,1-.867.6q-.444.286-.915.527c-.325.155-.65.295-.975.435a10.91,10.91,0,0,1-2.045.557c-.357.062-.712.092-1.055.125q-.371.026-.742.03-.529-.007-1.055-.062a10.507,10.507,0,0,1-2.09-.417h-.018c.342-.032.682-.062,1.025-.125a11.233,11.233,0,0,0,2.045-.557,9.6,9.6,0,0,0,.975-.435c.325-.155.62-.325.93-.51.295-.2.587-.4.867-.62a8.423,8.423,0,0,0,.79-.7,8.366,8.366,0,0,0,.727-.76c.233-.277.45-.557.65-.835.033-.047.065-.11.095-.155.155-.25.31-.5.45-.745a10.68,10.68,0,0,0,.835-1.937,10.087,10.087,0,0,0,.265-1.007c.063-.355.125-.695.155-1.037s.063-.712.063-1.052c0-.25-.018-.5-.033-.745q-.046-.521-.125-1.037t-.23-1.037c-.11-.325-.218-.667-.342-.992s-.278-.65-.432-.96c-.173-.31-.342-.62-.527-.915s-.4-.573-.62-.85c-.232-.265-.465-.53-.712-.792q-.2-.2-.4-.387c-.7-.542-1.425-1.052-2.155-1.517a2.886,2.886,0,0,0-.31-.155,6.037,6.037,0,0,0-1.472-.65Z" transform="translate(0 -0.047)" fill="#d5d5d5"/></svg>