<svg xmlns="http://www.w3.org/2000/svg" width="60" height="67.66" viewBox="0 0 60 67.66"><path d="M31.354,67.66a5.191,5.191,0,0,1-2.6-.7l-8.277-4.9c-1.235-.691-.631-.936-.226-1.08A16.566,16.566,0,0,0,24,59.284a.627.627,0,0,1,.615.048l6.36,3.775a.82.82,0,0,0,.767,0L56.532,48.8a.781.781,0,0,0,.378-.671V19.512a.8.8,0,0,0-.386-.682L31.74,4.531a.784.784,0,0,0-.764,0L6.2,18.832a.8.8,0,0,0-.392.679V48.126a.759.759,0,0,0,.392.663l6.791,3.924c3.685,1.844,5.943-.327,5.943-2.509V21.953a.712.712,0,0,1,.722-.713H22.8a.717.717,0,0,1,.719.713V50.2c0,4.919-2.678,7.739-7.341,7.739-1.432,0-2.563,0-5.712-1.553L3.957,52.648a5.232,5.232,0,0,1-2.6-4.522V19.512a5.23,5.23,0,0,1,2.6-4.519L28.752.666a5.427,5.427,0,0,1,5.21,0L58.753,14.993a5.233,5.233,0,0,1,2.6,4.519V48.126a5.244,5.244,0,0,1-2.6,4.522L33.961,66.964A5.176,5.176,0,0,1,31.354,67.66ZM51.373,39.449c0-5.356-3.62-6.783-11.24-7.789-7.7-1.018-8.483-1.545-8.483-3.346,0-1.489.662-3.476,6.366-3.476,5.094,0,6.972,1.1,7.744,4.53a.715.715,0,0,0,.7.561h3.217A.732.732,0,0,0,50.2,29.7a.724.724,0,0,0,.189-.553c-.5-5.915-4.429-8.672-12.37-8.672-7.07,0-11.288,2.983-11.288,7.987,0,5.427,4.195,6.927,10.981,7.6,8.119.795,8.748,1.982,8.748,3.578,0,2.771-2.224,3.952-7.448,3.952-6.56,0-8-1.646-8.488-4.911a.719.719,0,0,0-.713-.606H26.6a.711.711,0,0,0-.716.713c0,4.178,2.272,9.157,13.123,9.157C46.868,47.946,51.373,44.853,51.373,39.449Z" transform="translate(-1.358 0)" fill="#d5d5d5"/></svg>