<svg xmlns="http://www.w3.org/2000/svg" width="60" height="53.438" viewBox="0 0 60 53.438"><path d="M35.575,28.039a5.589,5.589,0,1,1-5.59-5.59A5.59,5.59,0,0,1,35.575,28.039Zm6.62-26.725c-3.365,0-7.768,2.4-12.22,6.555-4.45-4.133-8.855-6.5-12.217-6.5a5.492,5.492,0,0,0-2.765.695c-3.437,1.983-4.208,8.16-2.432,15.912C4.95,20.322,0,24.079,0,28.039c0,3.975,4.975,7.742,12.608,10.075-1.76,7.783-.975,13.97,2.47,15.95a5.368,5.368,0,0,0,2.755.688c3.363,0,7.768-2.4,12.22-6.56C34.5,52.326,38.908,54.7,42.27,54.7a5.488,5.488,0,0,0,2.765-.687c3.435-1.98,4.208-8.158,2.432-15.913C55.05,35.769,60,32,60,28.039S55.025,20.3,47.393,17.959c1.76-7.775.975-13.967-2.47-15.95a5.419,5.419,0,0,0-2.73-.695Zm-.012,2.725v.015a2.842,2.842,0,0,1,1.4.318c1.665.955,2.388,4.588,1.825,9.26-.135,1.15-.355,2.362-.625,3.6A58.69,58.69,0,0,0,37.01,15.9a59.729,59.729,0,0,0-5.087-6.118c3.98-3.7,7.718-5.73,10.262-5.737Zm-24.425.05c2.53,0,6.285,2.02,10.275,5.7a57.485,57.485,0,0,0-5.05,6.105A56.825,56.825,0,0,0,15.2,17.239c-.28-1.225-.488-2.41-.635-3.55-.575-4.67.135-8.3,1.785-9.267a3.662,3.662,0,0,1,1.408-.33Zm12.2,7.625a49.7,49.7,0,0,1,3.4,3.91c-1.1-.05-2.225-.085-3.362-.085s-2.288.025-3.4.085a47.5,47.5,0,0,1,3.363-3.913ZM30,18.279c1.85,0,3.693.085,5.5.233q1.523,2.182,2.958,4.65,1.4,2.4,2.545,4.865c-.77,1.637-1.615,3.275-2.533,4.875-.95,1.65-1.932,3.22-2.95,4.675-1.82.158-3.665.245-5.525.245s-3.693-.087-5.5-.233c-1.015-1.455-2.005-3.01-2.958-4.65q-1.395-2.4-2.545-4.865c.758-1.642,1.615-3.282,2.533-4.885.95-1.65,1.932-3.215,2.95-4.67,1.82-.16,3.665-.245,5.525-.245Zm-9.088.635c-.6.942-1.2,1.908-1.76,2.9-.562.975-1.088,1.955-1.587,2.935-.663-1.64-1.225-3.275-1.69-4.868,1.6-.375,3.288-.707,5.037-.965Zm18.15,0c1.737.257,3.412.575,5.015.968-.45,1.58-1.013,3.2-1.65,4.832-.5-.975-1.025-1.958-1.6-2.935s-1.163-1.935-1.763-2.865ZM46.72,20.6c1.21.375,2.36.793,3.438,1.245,4.33,1.85,7.13,4.27,7.13,6.19s-2.812,4.35-7.143,6.187c-1.05.45-2.2.855-3.387,1.233a59.916,59.916,0,0,0-2.75-7.45A58.208,58.208,0,0,0,46.72,20.6Zm-33.488.01a58.32,58.32,0,0,0,2.75,7.45,57.854,57.854,0,0,0-2.715,7.41,35.493,35.493,0,0,1-3.425-1.25c-4.33-1.843-7.13-4.265-7.13-6.185s2.8-4.355,7.13-6.19C10.892,21.4,12.042,20.992,13.232,20.612Zm29.2,10.7c.662,1.642,1.225,3.28,1.69,4.87-1.6.392-3.29.725-5.04.975.6-.937,1.2-1.9,1.763-2.9.563-.975,1.088-1.97,1.59-2.95Zm-24.862.05c.5.98,1.025,1.957,1.6,2.937s1.162,1.93,1.763,2.857c-1.738-.255-3.413-.575-5.015-.965.45-1.575,1.015-3.205,1.65-4.832ZM44.8,38.829a34.535,34.535,0,0,1,.635,3.557c.575,4.67-.135,8.3-1.785,9.27a2.68,2.68,0,0,1-1.407.32c-2.53,0-6.285-2.017-10.275-5.7a57.662,57.662,0,0,0,5.05-6.1,57.191,57.191,0,0,0,7.782-1.35Zm-29.575.025a59.538,59.538,0,0,0,7.767,1.33A59.421,59.421,0,0,0,28.08,46.3c-3.988,3.708-7.73,5.737-10.275,5.737a2.962,2.962,0,0,1-1.382-.33c-1.665-.95-2.387-4.585-1.825-9.258.135-1.15.355-2.36.625-3.595Zm11.4,1.6c1.1.05,2.225.085,3.362.085s2.288-.025,3.4-.085a47.913,47.913,0,0,1-3.362,3.913A50.681,50.681,0,0,1,26.625,40.454Z" transform="translate(0 -1.314)" fill="#d5d5d5"/></svg>