<svg xmlns="http://www.w3.org/2000/svg" width="60" height="56.899" viewBox="0 0 60 56.899"><path d="M41.584,40.329a4.162,4.162,0,0,0,3.75-4.385,4.321,4.321,0,0,0-4.272-4.12h-.153a4.275,4.275,0,0,0-4.12,4.422,4.564,4.564,0,0,0,1.235,2.882c-2.62,5.095-6.552,8.84-12.512,11.987a20.53,20.53,0,0,1-12.36,2.325,10.777,10.777,0,0,1-7.79-4.5,11.171,11.171,0,0,1-.637-11.835A17.614,17.614,0,0,1,9.972,31a24.9,24.9,0,0,1-1.05-3.857C-2.17,35.089-1.04,45.949,2.33,51.082c2.51,3.745,7.642,6.14,13.26,6.14a19.428,19.428,0,0,0,4.607-.485,29.306,29.306,0,0,0,21.352-16.33Zm13.37-9.365C49.154,24.145,40.609,20.4,30.869,20.4H29.595a4.032,4.032,0,0,0-3.745-2.247h-.112a4.192,4.192,0,0,0-4.117,4.382,4.316,4.316,0,0,0,4.27,4.12h.185a4.225,4.225,0,0,0,3.747-2.622h1.387a29.008,29.008,0,0,1,16.22,4.98,20.57,20.57,0,0,1,8.092,9.742,10.343,10.343,0,0,1-.112,8.992,11.14,11.14,0,0,1-10.49,6.292,19.553,19.553,0,0,1-7.417-1.61c-.9.745-2.4,1.982-3.485,2.732a24.05,24.05,0,0,0,9.85,2.357c7.3,0,12.735-4.117,14.8-8.09,2.245-4.495,2.06-12.06-3.675-18.54ZM16.225,41.674a4.313,4.313,0,0,0,4.27,4.12h.15a4.27,4.27,0,0,0-.112-8.537h-.15a1.625,1.625,0,0,0-.565.072,27.985,27.985,0,0,1-3.93-16.93A20.367,20.367,0,0,1,20.38,8.562c2.25-2.81,6.482-4.2,9.367-4.27,8.09-.152,11.462,9.927,11.722,13.935l3.745,1.125C44.352,7.062,36.714.62,29.41.62,22.55.62,16.225,5.6,13.675,12.907c-3.482,9.737-1.2,19.1,3.075,26.6A3.3,3.3,0,0,0,16.225,41.674Z" transform="translate(0 -0.62)" fill="#d5d5d5"/></svg>