<svg xmlns="http://www.w3.org/2000/svg" width="60" height="36" viewBox="0 0 60 36"><path d="M30,4.8q-12,0-15,12,4.5-6,10.5-4.5c2.282.57,3.913,2.225,5.72,4.06C34.164,19.345,37.566,22.8,45,22.8q12,0,15-12-4.5,6-10.5,4.5c-2.282-.57-3.912-2.225-5.72-4.06C40.841,8.255,37.438,4.8,30,4.8Zm-15,18q-12,0-15,12,4.5-6,10.5-4.5c2.283.57,3.912,2.225,5.72,4.06C19.163,37.345,22.566,40.8,30,40.8q12,0,15-12-4.5,6-10.5,4.5c-2.283-.57-3.912-2.225-5.72-4.06C25.841,26.255,22.438,22.8,15,22.8Z" transform="translate(-0.001 -4.8)" fill="#d5d5d5"/></svg>