<svg xmlns="http://www.w3.org/2000/svg" width="60" height="60" viewBox="0 0 60 60"><path d="M2.813,0A2.807,2.807,0,0,0,0,2.813V57.188A2.807,2.807,0,0,0,2.813,60H57.188A2.807,2.807,0,0,0,60,57.188V2.813A2.807,2.807,0,0,0,57.188,0ZM46.22,24.375a26.547,26.547,0,0,1,4.068.278,15.95,15.95,0,0,1,3.265.85v6.145a9.874,9.874,0,0,0-1.607-.9,12.732,12.732,0,0,0-1.792-.65,13.633,13.633,0,0,0-3.565-.5,8.938,8.938,0,0,0-2.048.215,5.25,5.25,0,0,0-1.558.605A3,3,0,0,0,42,31.35a2.22,2.22,0,0,0-.35,1.225,2.353,2.353,0,0,0,.39,1.322,4.516,4.516,0,0,0,1.108,1.11,11.6,11.6,0,0,0,1.74,1.025q1.024.506,2.315,1.04a25.928,25.928,0,0,1,3.165,1.57,11.263,11.263,0,0,1,2.407,1.882,7.288,7.288,0,0,1,1.535,2.393,9.562,9.562,0,0,1-.4,7.273,7.583,7.583,0,0,1-2.53,2.713,10.95,10.95,0,0,1-3.717,1.49,21.54,21.54,0,0,1-4.475.45,24.79,24.79,0,0,1-4.6-.41A13.86,13.86,0,0,1,34.81,53.2V46.625a12.582,12.582,0,0,0,8.092,3,9.352,9.352,0,0,0,2.18-.225,5.14,5.14,0,0,0,1.557-.625,2.787,2.787,0,0,0,.932-.95,2.557,2.557,0,0,0-.185-2.722,5.3,5.3,0,0,0-1.343-1.25,13.992,13.992,0,0,0-2.017-1.11q-1.248-.57-2.518-1.09a12.86,12.86,0,0,1-5.132-3.513,7.693,7.693,0,0,1-1.69-5.013,8,8,0,0,1,.923-3.955,7.838,7.838,0,0,1,2.51-2.722A11.235,11.235,0,0,1,41.8,24.878a18.84,18.84,0,0,1,4.425-.5Zm-37.782.47H32.345V30.26h-8.58V54.375H16.972V30.26H8.438Z" fill="#d5d5d5"/></svg>